<?xml version="1.0" encoding="utf-8"?>
<!-- Generator: Adobe Illustrator 21.0.0, SVG Export Plug-In . SVG Version: 6.00 Build 0)  -->
<svg version="1.1" id="Capa_1" xmlns="http://www.w3.org/2000/svg" xmlns:xlink="http://www.w3.org/1999/xlink" x="0px" y="0px"
	 viewBox="0 0 510 527" style="enable-background:new 0 0 510 527;" xml:space="preserve">
<style type="text/css">
	.st0{display:none;fill:#685B30;}
	.st1{fill:#E76F51;}
	.st2{fill:#FFFFFF;}
</style>
<path class="st0" d="M417.9,240.9C415,230,410,216,397.4,213.8c-28-5.1-29.3,37.1-38.4,52.8c-9.7,16.3-39.7,17.9-55.6,10.5
	c1.4-29.4,1.4-58.8-0.8-87.3c-1.8-27.1-2.6-90.1-26.1-108c-17.9-13.4-57.1-8.6-72.8,12.1c-14.3,16.8-7.5,68.3-7.1,88.3
	c0.1,12.3,4.3,54.5,9.5,102.6c-15.9,7.3-44.5,6.5-54.5-8.9c-9.8-15.3-12.9-57.5-40.6-51.1c-12.5,2.8-16.9,17-19.2,28
	c-3.3,16.9,2.6,34.4,13.7,47.5c11.7,14.2,32.5,25.3,51,28c10.1,1.6,23.5,2.3,33.4-0.4c9.1-2.5,15.2-4.4,20.1-7.9
	c8,71.5,16.5,143.3,16.5,143.3c18.9,13.5,34.2,9.8,55.5,5.5c5.8-22.5,7.7-46.3,10.7-70c3.1-28.1,6.3-57.2,8.6-86.6
	c5.3,3.9,11.7,5.6,21.8,7.9c10,2.3,23.4,1.1,33.4-1c18.4-3.4,38.7-15.4,49.8-30.1C416.7,275.4,421.9,257.7,417.9,240.9z"/>
<path class="st1" d="M404.8,260.5c-2.6-10.1-7.2-23-18.8-25.1c-25.7-4.7-27,34.3-35.3,48.8c-8.9,15.1-36.5,16.5-51.1,9.7
	c0.4-8.5,0.7-16.9,0.8-25.4c0.3-17.9-0.1-35.7-1.4-53.1c-0.1-0.7-0.1-1.4-0.2-2.1c-0.4-6-0.7-14-1.3-22.9
	c-1.9-27.8-6.2-64.3-22.6-76.8c-16.4-12.4-52.5-7.9-66.9,11.2c-13.2,15.5-6.9,63-6.6,81.5c0.1,11.3,4,50.3,8.8,94.7
	c-14.6,6.7-40.9,6-50.1-8.2c-9-14.1-11.9-53-37.4-47.2c-11.5,2.6-15.5,15.7-17.7,25.8c-3,15.6,2.4,31.7,12.6,43.8
	c10.7,13.1,29.9,23.3,46.9,25.8c9.3,1.5,21.6,2.1,30.7-0.4c8.4-2.3,14-4.1,18.5-7.3c7.3,66,15.2,132.2,15.2,132.2
	c17.4,12.5,31.4,9,51,5.1c5.3-20.8,7.1-42.7,9.8-64.6c2.9-25.9,5.8-52.8,7.9-79.9c4.9,3.6,10.8,5.2,20,7.3c9.2,2.1,21.5,1,30.7-0.9
	c16.9-3.2,35.6-14.2,45.7-27.8C403.7,292.3,408.4,276,404.8,260.5z"/>
<g>
	<path class="st1" d="M320.6,177.3c-1.4,0-2.6-1.2-2.6-2.6v-19.1c0-39-31.7-70.7-70.7-70.7c-38.2,0-69.9,31-70.7,69.2
		c0,0.5,0,1,0,1.5v19.1c0,1.4-1.2,2.6-2.6,2.6c-1.4,0-2.6-1.2-2.6-2.6v-19.1c0-0.6,0-1.1,0-1.7c0.9-40.9,34.9-74.2,75.8-74.2
		c41.8,0,75.9,34,75.9,75.9v19.1C323.1,176.1,322,177.3,320.6,177.3z"/>
</g>
<g>
	<g>
		<path class="st1" d="M294.5,109.9c-20.9-28.6-73.6-28.6-94.5,0c-3.7-2.6-7.6-5.1-11.8-7.4c24.8-36.5,93.2-36.5,118,0
			C302.2,104.8,298.3,107.3,294.5,109.9z"/>
		<path class="st1" d="M294.5,112.5c-0.8,0-1.6-0.4-2.1-1.1c-9.3-12.7-26.2-20.4-45.2-20.4c-18.9,0-35.8,7.6-45.2,20.4
			c-0.8,1.1-2.4,1.4-3.6,0.6c-3.6-2.6-7.5-5-11.5-7.2c-0.6-0.3-1.1-1-1.3-1.7c-0.2-0.7,0-1.4,0.4-2.1c12.1-17.8,35-28.5,61.1-28.5
			c26.2,0,49,10.6,61.1,28.5c0.4,0.6,0.5,1.3,0.4,2.1c-0.2,0.7-0.6,1.3-1.3,1.7c-4,2.2-7.8,4.6-11.5,7.2
			C295.6,112.3,295.1,112.5,294.5,112.5z M192,101.7c2.6,1.5,5,3,7.4,4.7c10.5-12.9,28.2-20.5,47.8-20.5c19.6,0,37.3,7.6,47.8,20.5
			c2.4-1.6,4.9-3.2,7.4-4.7c-11.5-15-32-24-55.2-24C224,77.8,203.6,86.7,192,101.7z"/>
	</g>
	<g>
		<path class="st1" d="M294.5,112.5c-0.8,0-1.6-0.4-2.1-1.1c-9.3-12.7-26.2-20.4-45.2-20.4c-18.9,0-35.8,7.6-45.2,20.4
			c-0.8,1.1-2.4,1.4-3.6,0.6c-3.6-2.6-7.5-5-11.5-7.2c-0.6-0.3-1.1-1-1.3-1.7c-0.2-0.7,0-1.4,0.4-2.1c12.1-17.8,35-28.5,61.1-28.5
			c26.2,0,49,10.6,61.1,28.5c0.4,0.6,0.5,1.3,0.4,2.1c-0.2,0.7-0.6,1.3-1.3,1.7c-4,2.2-7.8,4.6-11.5,7.2
			C295.6,112.3,295.1,112.5,294.5,112.5z M192,101.7c2.6,1.5,5,3,7.4,4.7c10.5-12.9,28.2-20.5,47.8-20.5c19.6,0,37.3,7.6,47.8,20.5
			c2.4-1.6,4.9-3.2,7.4-4.7c-11.5-15-32-24-55.2-24C224,77.8,203.6,86.7,192,101.7z"/>
	</g>
</g>
<g>
	<path class="st1" d="M265.9,249c-1.4,0-2.6-1.2-2.6-2.6c0-1.4,1.2-2.6,2.6-2.6c24.6,0,42-5.4,50.3-15.5c7-8.6,5.2-17.6,5.1-17.7
		c-0.3-1.4,0.6-2.8,2-3c1.4-0.3,2.8,0.6,3,2c0.1,0.5,2.3,11.6-6.2,22C310.7,243.1,292.5,249,265.9,249z"/>
</g>
<g>
	<path class="st1" d="M336.7,193.7c0-14.9-6.2-27-13.8-27.1v0h-5v1.7c-5.6,3.8-10.1,13.7-10.1,25.4c0,11.7,4.5,21.6,10.1,25.4v1.7h5
		v0C330.5,220.8,336.7,208.7,336.7,193.7z"/>
	<path class="st1" d="M322.8,223.4h-5c-1.4,0-2.6-1.2-2.6-2.6v-0.4c-6.1-5-10.1-15.5-10.1-26.7c0-11.3,4-21.8,10.1-26.7v-0.4
		c0-1.4,1.2-2.6,2.6-2.6h5c0.1,0,0.2,0,0.3,0c9,0.3,16.1,13.3,16.1,29.7C339.2,210.3,332,223.3,322.8,223.4
		C322.9,223.4,322.9,223.4,322.8,223.4z M320.3,218.3h2.5c5.3-0.1,11.3-10.2,11.3-24.5c0-14.4-5.9-24.5-11.3-24.5
		c-0.1,0-0.1,0-0.2,0h-2.3c-0.2,0.5-0.5,0.9-1,1.2c-4.3,2.9-9,11.5-9,23.3c0,11.8,4.7,20.4,9,23.3
		C319.8,217.4,320.1,217.8,320.3,218.3z"/>
</g>
<g>
	<path class="st1" d="M323.2,215.1c0,3.5-2.3,6.4-5.1,6.4h-5.2c-2.8,0-5.2-2.9-5.2-6.4v-42.8c0-3.5,2.3-6.4,5.2-6.4h5.2
		c2.8,0,5.1,2.9,5.1,6.4V215.1z"/>
	<path class="st1" d="M318.1,224.1h-5.2c-4.3,0-7.7-4-7.7-9v-42.8c0-5,3.5-9,7.7-9h5.2c4.3,0,7.7,4,7.7,9v42.8
		C325.8,220.1,322.3,224.1,318.1,224.1z M312.9,168.5c-1.4,0-2.6,1.8-2.6,3.8v42.8c0,2,1.2,3.8,2.6,3.8h5.2c1.4,0,2.6-1.8,2.6-3.8
		v-42.8c0-2-1.2-3.8-2.6-3.8H312.9z"/>
</g>
<g>
	<path class="st1" d="M157.9,193.7c0-14.9,6.2-27,13.8-27.1v0h5v1.7c5.6,3.8,10.1,13.7,10.1,25.4c0,11.7-4.5,21.6-10.1,25.4v1.7h-5
		v0C164.1,220.8,157.9,208.7,157.9,193.7z"/>
	<path class="st1" d="M176.7,223.4h-5c-9.2-0.1-16.4-13.1-16.4-29.7c0-16.4,7-29.3,16.1-29.7c0.1,0,0.2,0,0.3,0h5
		c1.4,0,2.6,1.2,2.6,2.6v0.4c6.1,5,10.1,15.5,10.1,26.7c0,11.3-4,21.8-10.1,26.7v0.4C179.3,222.3,178.1,223.4,176.7,223.4z
		 M171.9,169.2c-0.1,0-0.1,0-0.2,0c-5.3,0.1-11.3,10.1-11.3,24.5c0,14.4,5.9,24.5,11.3,24.5h2.5c0.2-0.5,0.5-0.9,1-1.2
		c4.3-2.9,9-11.5,9-23.3c0-11.8-4.7-20.4-9-23.3c-0.4-0.3-0.8-0.7-1-1.2H171.9z"/>
</g>
<g>
	<path class="st1" d="M171.3,215.1c0,3.5,2.3,6.4,5.1,6.4h5.1c2.8,0,5.1-2.9,5.1-6.4v-42.8c0-3.5-2.3-6.4-5.1-6.4h-5.1
		c-2.8,0-5.1,2.9-5.1,6.4V215.1z"/>
	<path class="st1" d="M181.6,224.1h-5.1c-4.3,0-7.7-4-7.7-9v-42.8c0-5,3.5-9,7.7-9h5.1c4.3,0,7.7,4,7.7,9v42.8
		C189.4,220.1,185.9,224.1,181.6,224.1z M176.5,168.5c-1.4,0-2.6,1.8-2.6,3.8v42.8c0,2,1.2,3.8,2.6,3.8h5.1c1.4,0,2.6-1.8,2.6-3.8
		v-42.8c0-2-1.2-3.8-2.6-3.8H176.5z"/>
</g>
<g>
	<path class="st2" d="M273.3,246.5c0,2.9-2.6,5.2-5.7,5.2H248c-3.2,0-5.7-2.3-5.7-5.2v-0.2c0-2.9,2.6-5.2,5.7-5.2h19.6
		c3.2,0,5.7,2.3,5.7,5.2V246.5z"/>
	<path class="st2" d="M267.5,254.3H248c-4.6,0-8.3-3.5-8.3-7.8c0-4.5,3.7-8,8.3-8h19.6c4.6,0,8.3,3.5,8.3,7.8
		C275.8,250.8,272.1,254.3,267.5,254.3z M248,243.7c-1.7,0-3.2,1.2-3.2,2.6c0,1.6,1.4,2.8,3.2,2.8h19.6c1.7,0,3.2-1.2,3.2-2.6
		c0-1.6-1.4-2.8-3.2-2.8H248z"/>
</g>
<path class="st2" d="M300.1,238.9c-8.9,3.3-20.4,5-34.2,5c-1.4,0-2.6,1.2-2.6,2.6c0,1.4,1.2,2.6,2.6,2.6c13.7,0,25.2-1.6,34.4-4.7
	L300.1,238.9z"/>
</svg>
