<?xml version="1.0" encoding="utf-8"?>
<!-- Generator: Adobe Illustrator 22.0.1, SVG Export Plug-In . SVG Version: 6.00 Build 0)  -->
<svg version="1.1" id="Capa_1" xmlns="http://www.w3.org/2000/svg" xmlns:xlink="http://www.w3.org/1999/xlink" x="0px" y="0px"
	 viewBox="0 0 80 80" style="enable-background:new 0 0 80 80;" xml:space="preserve">
<style type="text/css">
	.st0{display:none;fill:none;}
	.st1{fill:none;stroke:#EBEBEB;stroke-width:3;stroke-linecap:round;}
	.st2{display:none;fill:#EBEBEB;}
	.st3{fill:none;stroke:#F4A261;stroke-width:3;stroke-linecap:round;}
	.st4{fill:#F4A261;}
</style>
<rect class="st0" width="80" height="80"/>
<g>
	
		<animate  accumulate="none" additive="replace" attributeName="opacity" begin="0s" calcMode="linear" dur="2s" fill="remove" keyTimes="0;0.33;1" repeatCount="indefinite" restart="always" values="1;1;0">
		</animate>
	<circle class="st1" cx="40" cy="40" r="32">
	
		<animate  accumulate="none" additive="replace" attributeName="r" begin="0s" calcMode="linear" dur="2s" fill="remove" keyTimes="0;0.33;1" repeatCount="indefinite" restart="always" values="0;22;44">
		</animate>
	</circle>
	<path class="st2" d="M64.3,35.1c-0.4-1.6-1.2-3.7-3.1-4.1c-4.2-0.8-4.4,5.6-5.7,7.9c-1.4,2.4-5.9,2.7-8.3,1.6
		c0.2-4.4,0.2-8.8-0.1-13.1c-0.3-4.1-0.4-13.5-3.9-16.2c-2.7-2-8.5-1.3-10.9,1.8c-2.1,2.5-1.1,10.2-1.1,13.2c0,1.8,0.6,8.2,1.4,15.4
		c-2.4,1.1-6.6,1-8.1-1.3c-1.5-2.3-1.9-8.6-6.1-7.7c-1.9,0.4-2.5,2.5-2.9,4.2c-0.5,2.5,0.4,5.2,2.1,7.1c1.7,2.1,4.8,3.8,7.6,4.2
		c1.5,0.2,3.5,0.3,5-0.1c1.4-0.4,2.3-0.7,3-1.2c1.2,10.7,2.5,21.5,2.5,21.5c2.8,2,5.1,1.5,8.3,0.8c0.9-3.4,1.2-6.9,1.6-10.5
		c0.5-4.2,0.9-8.6,1.3-13c0.8,0.6,1.8,0.8,3.3,1.2c1.5,0.3,3.5,0.2,5-0.1c2.7-0.5,5.8-2.3,7.4-4.5C64.1,40.3,64.9,37.6,64.3,35.1z"
		/>
</g>
<g>
	
		<animate  accumulate="none" additive="replace" attributeName="opacity" begin="1s" calcMode="linear" dur="2s" fill="remove" keyTimes="0;0.33;1" repeatCount="indefinite" restart="always" values="1;1;0">
		</animate>
	<circle class="st3" cx="40" cy="40" r="32">
	
		<animate  accumulate="none" additive="replace" attributeName="r" begin="1s" calcMode="linear" dur="2s" fill="remove" keyTimes="0;0.33;1" repeatCount="indefinite" restart="always" values="0;22;44">
		</animate>
	</circle>
	<path class="st4" d="M52.5,37.5c-0.2-0.8-0.6-1.9-1.6-2.1c-2.1-0.4-2.2,2.9-2.9,4.1c-0.7,1.3-3,1.4-4.3,0.8
		c0.1-2.3,0.1-4.5-0.1-6.7c-0.1-2.1-0.2-6.9-2-8.3c-1.4-1-4.4-0.7-5.6,0.9c-1.1,1.3-0.6,5.3-0.5,6.8c0,0.9,0.3,4.2,0.7,7.9
		c-1.2,0.6-3.4,0.5-4.2-0.7c-0.7-1.2-1-4.4-3.1-3.9c-1,0.2-1.3,1.3-1.5,2.2c-0.3,1.3,0.2,2.6,1.1,3.7c0.9,1.1,2.5,1.9,3.9,2.2
		c0.8,0.1,1.8,0.2,2.6,0c0.7-0.2,1.2-0.3,1.5-0.6c0.6,5.5,1.3,11,1.3,11c1.4,1,2.6,0.8,4.3,0.4c0.4-1.7,0.6-3.6,0.8-5.4
		c0.2-2.2,0.5-4.4,0.7-6.7c0.4,0.3,0.9,0.4,1.7,0.6c0.8,0.2,1.8,0.1,2.6-0.1c1.4-0.3,3-1.2,3.8-2.3C52.4,40.1,52.8,38.8,52.5,37.5z"
		/>
</g>
</svg>
